<svg xmlns="http://www.w3.org/2000/svg" viewBox="0 0 200 200" role="img" aria-label="Apple">
  <path fill="#FFFFFF" d="M142.6 67.5c-1.4-8.5-5.8-15.3-12.3-20.2-6.5-4.9-13.9-6.8-22-5.8-3 .4-5.9 1.3-8.7 2.7-2.9-1.5-5.9-2.4-9-2.7-8.1-1-15.5.9-22 5.8-6.5 4.9-10.9 11.7-12.3 20.2-.9 5.1-.7 10.2.6 15.1 1.3 5 3.4 9.6 6.3 13.8 4.4 6.3 9.3 12.1 14.8 17.4 4.7 4.6 9.7 8.8 14.9 12.7.6.5 1.2.7 1.9.7s1.3-.2 1.9-.7c5.2-3.9 10.2-8.1 14.9-12.7 5.5-5.3 10.4-11.1 14.8-17.4 2.9-4.2 5-8.8 6.3-13.8 1.3-4.9 1.5-10 .6-15.1zm-9.5 11.9c-1.1 4-2.8 7.7-5.2 11.1-4 5.8-8.5 11.1-13.6 15.9-4.2 4.1-8.7 7.8-13.4 11.3-.2.1-.3.2-.5.2s-.3-.1-.5-.2c-4.8-3.5-9.3-7.2-13.4-11.3-5.1-4.8-9.6-10.1-13.6-15.9-2.3-3.4-4.1-7.1-5.2-11.1-1.1-4.1-1.2-8.2-.4-12.4 1.2-6.5 4.5-11.8 9.9-15.7 5.3-3.9 11.4-5.5 18-4.7 3.1.4 5.9 1.4 8.5 3.1l1.7 1.1 1.7-1.1c2.6-1.7 5.5-2.7 8.6-3.1 6.5-.8 12.6.8 17.9 4.7 5.4 3.9 8.7 9.2 9.9 15.7.8 4.2.7 8.3-.4 12.4z"/>
  <path fill="#FFFFFF" d="M128.8 29.5c-3.6-3.7-7.9-5.9-13-6.5-.4 4.1 1.3 8.9 4.7 12.8 3.4 3.9 8 6.2 12.3 6.3.2-4.5-1.2-8.8-4-12.6z"/>
</svg>
